# xmcd
#
# Track frame offsets: 
#        150
#        15995
#        28105
#        42682
#        60042
#        79185
#        92290
#        108432
#        123610
#        140307
#
# Disc length: 2112 seconds
#
# Revision: 5
# Processed by: cddbd v1.5.1PL2 Copyright (c) Steve Scherf et al.
# Submitted via: ExactAudioCopy v0.95b4
#
DISCID=74083e0a
DTITLE=The Judds - Greatest Hits
DYEAR=1996
DGENRE=Country
TTITLE0=Why Not Me
TTITLE1=Rockin' With The Rhythm Of The Rain
TTITLE2=Mama He's Crazy
TTITLE3=Give A Little Love
TTITLE4=Grandpa (Tell Me 'Bout The Good Old Days)
TTITLE5=Girls Night Out
TTITLE6=Change Of Heart
TTITLE7=Have Mercy
TTITLE8=Cry Myself To Sleep
TTITLE9=Love Is Alive
EXTD=
EXTT0=
EXTT1=
EXTT2=
EXTT3=
EXTT4=
EXTT5=
EXTT6=
EXTT7=
EXTT8=
EXTT9=
PLAYORDER=
